<svg width="217" height="62" viewBox="0 0 217 62" fill="none" xmlns="http://www.w3.org/2000/svg">
<circle cx="30" cy="31" r="29.25" fill="#FFFBEF" stroke="#104849" stroke-width="1.5"/>
<path d="M30.6684 23.2819C29.729 25.3176 29.3382 26.5275 28.9528 28.8323C26.1272 23.2819 30.1638 21.1626 31.7785 20.759C35.0078 24.8764 32.0476 27.8568 30.1638 28.8323C30.7679 26.6935 30.9308 25.4824 30.6684 23.2819Z" fill="#F3721E"/>
<path d="M16.3599 26.1304C17.6505 27.6551 18.4806 28.4259 20.1971 29.6044C14.6511 29.7981 14.4584 25.7405 14.74 24.2845C19.2805 23.2256 20.5737 26.7379 20.6528 28.6264C19.1526 27.3337 18.2359 26.7465 16.3599 26.1304Z" fill="#87C349"/>
<path d="M22.2666 19.965C22.6571 22.2536 23.0324 23.5156 24.0537 25.7094C18.3891 22.6257 20.5941 18.4512 21.7363 17.1605C26.906 18.7841 26.1246 23.0632 25.0877 24.9999C24.3503 22.8197 23.7799 21.6903 22.2666 19.965Z" fill="#F8C00D"/>
<path d="M43.2832 25.3598C41.63 26.5272 40.7784 27.2967 39.4368 28.9247C39.733 23.3101 43.8453 23.4753 45.2898 23.8885C45.956 28.565 42.2965 29.5589 40.3835 29.4713C41.8212 28.0718 42.4951 27.1986 43.2832 25.3598Z" fill="#F8C00D"/>
<path d="M27.9561 14.6202C27.1832 16.0231 26.8433 16.8654 26.4516 18.4882C24.7201 14.3895 27.7042 13.0845 28.8753 12.8789C30.9672 15.9769 28.7064 17.9503 27.3145 18.5497C27.8536 17.0563 28.0312 16.2017 27.9561 14.6202Z" fill="#F8C00D"/>
<path d="M18.3247 34.3404C19.4952 34.8832 20.1909 35.1089 21.5162 35.3316C18.3247 36.9641 17.1061 34.6319 16.874 33.6991C19.2415 31.8334 20.9553 33.5436 21.5162 34.6319C20.2864 34.2829 19.59 34.1888 18.3247 34.3404Z" fill="#F8C00D"/>
<path d="M51.0949 24.4465C49.8099 24.5618 49.0945 24.7141 47.8354 25.1839C49.7831 22.1744 52.0045 23.5848 52.6719 24.2766C51.5545 27.0761 49.2152 26.4519 48.1853 25.7898C49.4248 25.4771 50.0749 25.2105 51.0949 24.4465Z" fill="#F8C00D"/>
<path d="M37.7453 20.5999C36.503 22.3892 35.9249 23.4809 35.1673 25.6212C33.4001 19.8337 37.6201 18.487 39.2332 18.3732C41.6284 22.8578 38.293 25.21 36.326 25.8256C37.2649 23.881 37.6251 22.7497 37.7453 20.5999Z" fill="#87C349"/>
<path d="M49.4004 29.6532C47.1684 29.5614 45.9055 29.6612 43.6361 30.1819C47.6749 25.4703 51.1607 28.3832 52.1461 29.7171C49.5806 34.2561 45.7105 32.6619 44.0962 31.2974C46.2958 31.0411 47.4732 30.731 49.4004 29.6532Z" fill="#87C349"/>
<path d="M44.0672 13.71C43.2771 15.0933 42.9262 15.9257 42.5118 17.5335C40.8526 13.431 43.8402 12.1789 45.008 11.9923C47.0409 15.1053 44.7624 17.0331 43.369 17.6079C43.928 16.131 44.1177 15.2838 44.0672 13.71Z" fill="#87C349"/>
<path d="M14.9433 18.7821C15.8622 20.0834 16.4679 20.7537 17.7492 21.8096C13.33 21.5765 13.46 18.3397 13.7853 17.2028C17.4661 16.6784 18.2484 19.5588 18.1794 21.0645C17.0779 19.9329 16.3906 19.4025 14.9433 18.7821Z" fill="#87C349"/>
<path d="M8.23339 22.2304C9.40391 22.7732 10.0996 22.9989 11.4249 23.2216C8.23339 24.8541 7.01482 22.5219 6.78271 21.5891C9.15022 19.7233 10.864 21.4336 11.4249 22.5219C10.195 22.1729 9.49871 22.0788 8.23339 22.2304Z" fill="#87C349"/>
<path d="M37.1755 29.6556C36.1202 30.398 35.5768 30.8876 34.7213 31.924C34.9033 28.3438 37.5323 28.4546 38.4562 28.72C38.8882 31.7032 36.5502 32.3322 35.3272 32.2738C36.2444 31.3832 36.6741 30.8272 37.1755 29.6556Z" fill="#87C349"/>
<path d="M39.1323 11.0079C38.4087 12.5855 38.1077 13.5232 37.8108 15.3094C35.6341 11.0079 38.7436 9.36545 39.9875 9.05261C42.4751 12.2436 40.1948 14.5534 38.7436 15.3094C39.209 13.6518 39.3344 12.7133 39.1323 11.0079Z" fill="#104849"/>
<path d="M30.8894 9.62235C30.677 10.754 30.6346 11.4052 30.7336 12.5999C28.6158 10.2018 30.3684 8.63345 31.1256 8.22679C33.264 9.86113 32.1594 11.7201 31.3399 12.4454C31.3714 11.3053 31.2995 10.6826 30.8894 9.62235Z" fill="#104849"/>
<path d="M22.4337 12.2128C22.7915 13.3072 23.0675 13.8986 23.7288 14.8984C20.7188 13.8142 21.5013 11.5964 21.9697 10.8756C24.6305 11.2803 24.556 13.4414 24.1861 14.4714C23.6655 13.4566 23.3031 12.9452 22.4337 12.2128Z" fill="#104849"/>
<path d="M10.3011 17.2752C10.6435 18.322 10.9075 18.8877 11.5401 19.8442C8.66073 18.807 9.40919 16.6854 9.85727 15.996C12.4026 16.3831 12.3313 18.4504 11.9775 19.4357C11.4795 18.4649 11.1328 17.9757 10.3011 17.2752Z" fill="#104849"/>
<path d="M9.42799 26.4305C10.538 26.1245 11.1417 25.8767 12.1716 25.2632C10.9469 28.2188 8.76828 27.3329 8.07043 26.831C8.59994 24.1922 10.7552 24.3684 11.7666 24.7863C10.7284 25.2586 10.2005 25.5965 9.42799 26.4305Z" fill="#104849"/>
<path d="M22.8307 30.2803C23.5356 31.2515 23.9984 31.7499 24.9741 32.5304C21.6416 32.4171 21.7087 29.9668 21.943 29.1021C24.7118 28.653 25.3288 30.8206 25.2912 31.9606C24.4503 31.1203 23.9273 30.7289 22.8307 30.2803Z" fill="#104849"/>
<path d="M43.7418 20.7101C42.7201 21.4288 42.1941 21.9028 41.3659 22.9061C41.5421 19.4401 44.0872 19.5473 44.9817 19.8043C45.3999 22.6923 43.1365 23.3013 41.9525 23.2448C42.8404 22.3826 43.2564 21.8443 43.7418 20.7101Z" fill="#87C349"/>
<path d="M41.8068 33.6142C40.5244 33.8006 39.815 33.9926 38.5767 34.5322C40.3756 31.4138 42.6746 32.7018 43.3791 33.357C42.4018 36.2193 40.0248 35.7243 38.9584 35.119C40.1851 34.7376 40.8232 34.4349 41.8068 33.6142Z" fill="#F3721E"/>
<path d="M17.8249 12.5394C17.7145 13.8305 17.7399 14.565 17.9836 15.8936C15.3565 13.4321 17.134 11.4866 17.9324 10.9498C20.4971 12.553 19.474 14.7549 18.6418 15.6555C18.5497 14.3742 18.4001 13.6839 17.8249 12.5394Z" fill="#F3721E"/>
<path d="M32.9626 15.5649C33.3497 17.2078 33.6791 18.1065 34.5196 19.652C30.2696 17.6711 31.6805 14.5422 32.4508 13.5539C36.2754 14.4978 35.9023 17.6381 35.2377 19.0903C34.6039 17.5418 34.1388 16.7481 32.9626 15.5649Z" fill="#F3721E"/>
<path d="M49.1966 18.8741C48.0119 20.0764 47.4265 20.8337 46.5656 22.3679C45.9799 17.7158 49.3797 17.2443 50.6264 17.3702C51.8635 21.1103 49.0066 22.4663 47.4234 22.6768C48.3968 21.3159 48.8211 20.4997 49.1966 18.8741Z" fill="#F3721E"/>
<path d="M10.4862 30.5499C12.5826 31.3448 13.8168 31.65 16.143 31.8734C10.8036 35.08 8.40744 31.2013 7.89192 29.6188C11.7736 26.1097 14.9536 28.8544 16.0584 30.6654C13.8825 30.2122 12.6631 30.1344 10.4862 30.5499Z" fill="#F3721E"/>
<path d="M20.9265 38.4194C28.4347 43.4249 31.8592 34.1809 32.6329 28.9332C34.2475 44.3735 24.8623 53.3551 23.7522 54.3642C30.7154 42.4561 23.5504 40.4377 20.9265 38.4194Z" fill="#F3721E"/>
<ellipse cx="25.1494" cy="35.8965" rx="1.41283" ry="1.41283" fill="#F3721E"/>
<path d="M39.2778 38.4194C31.7696 43.4249 28.3452 34.1809 27.5715 28.9332C25.9568 44.3735 35.3421 53.3551 36.4521 54.3642C29.4889 42.4561 36.654 40.4377 39.2778 38.4194Z" fill="#104849" stroke="#FFFBEF" stroke-width="0.75"/>
<ellipse cx="35.0395" cy="35.8965" rx="1.41283" ry="1.41283" fill="#104849"/>
<path d="M17.399 38.5216C14.8606 38.0816 12.7164 36.7591 11.9616 36.1529C10.9706 39.6611 14.7745 41.0321 15.5712 41.455C18.6957 42.9128 16.308 43.2991 15.0231 43.1929C7.9373 40.3022 6.83796 35.5253 6.86029 34.4072C5.24306 41.5129 9.39036 44.2732 11.187 45.5261C21.8158 49.158 22.6875 50.6827 23.5172 52.5908C28.2892 42.2746 20.5721 39.0716 17.399 38.5216Z" fill="url(#paint0_linear_120_715)"/>
<path d="M42.5424 38.5216C45.0808 38.0816 47.225 36.7591 47.9798 36.1529C48.9708 39.6611 45.1669 41.0321 44.3702 41.455C41.2457 42.9128 43.6334 43.2991 44.9183 43.1929C52.0041 40.3022 53.1034 35.5253 53.0811 34.4072C54.6984 41.5129 50.551 44.2732 48.7544 45.5261C38.1256 49.158 37.2539 50.6827 36.4242 52.5908C31.6522 42.2746 39.3693 39.0716 42.5424 38.5216Z" fill="url(#paint1_linear_120_715)"/>
<path d="M68 1L68 61" stroke="#104849" stroke-width="1.5" stroke-linecap="round"/>
<path d="M81.31 27.775L81.295 26.935L87.835 32.5H84.955L79.135 27.4L84.31 22.795H87.145L81.31 27.775ZM77.155 22.795H79.15V32.5H77.155V22.795ZM89.1168 25.045H91.0668V32.5H89.1168V25.045ZM93.9318 26.65C93.3718 26.65 92.8868 26.76 92.4768 26.98C92.0668 27.19 91.7368 27.45 91.4868 27.76C91.2368 28.07 91.0618 28.37 90.9618 28.66L90.9468 27.835C90.9568 27.715 90.9968 27.54 91.0668 27.31C91.1368 27.07 91.2418 26.815 91.3818 26.545C91.5218 26.265 91.7068 26 91.9368 25.75C92.1668 25.49 92.4468 25.28 92.7768 25.12C93.1068 24.96 93.4918 24.88 93.9318 24.88V26.65ZM97.3723 21.775V23.485H95.1073V21.775H97.3723ZM95.2573 25.045H97.2073V32.5H95.2573V25.045ZM98.851 30.025H100.651C100.761 30.365 100.986 30.645 101.326 30.865C101.676 31.075 102.131 31.18 102.691 31.18C103.071 31.18 103.366 31.145 103.576 31.075C103.786 31.005 103.931 30.905 104.011 30.775C104.091 30.635 104.131 30.48 104.131 30.31C104.131 30.1 104.066 29.94 103.936 29.83C103.806 29.71 103.606 29.615 103.336 29.545C103.066 29.475 102.721 29.41 102.301 29.35C101.881 29.28 101.476 29.195 101.086 29.095C100.696 28.995 100.351 28.865 100.051 28.705C99.751 28.535 99.511 28.325 99.331 28.075C99.161 27.815 99.076 27.5 99.076 27.13C99.076 26.77 99.161 26.45 99.331 26.17C99.511 25.89 99.756 25.655 100.066 25.465C100.386 25.275 100.756 25.13 101.176 25.03C101.606 24.93 102.066 24.88 102.556 24.88C103.296 24.88 103.911 24.99 104.401 25.21C104.891 25.42 105.256 25.72 105.496 26.11C105.746 26.49 105.871 26.93 105.871 27.43H104.146C104.066 27.06 103.906 26.795 103.666 26.635C103.426 26.465 103.056 26.38 102.556 26.38C102.066 26.38 101.696 26.455 101.446 26.605C101.196 26.755 101.071 26.96 101.071 27.22C101.071 27.43 101.146 27.595 101.296 27.715C101.456 27.825 101.686 27.915 101.986 27.985C102.296 28.055 102.681 28.13 103.141 28.21C103.531 28.29 103.901 28.38 104.251 28.48C104.611 28.58 104.931 28.71 105.211 28.87C105.491 29.02 105.711 29.225 105.871 29.485C106.041 29.735 106.126 30.055 106.126 30.445C106.126 30.925 105.986 31.33 105.706 31.66C105.436 31.99 105.046 32.245 104.536 32.425C104.026 32.595 103.416 32.68 102.706 32.68C102.076 32.68 101.531 32.615 101.071 32.485C100.621 32.345 100.246 32.17 99.946 31.96C99.646 31.74 99.411 31.51 99.241 31.27C99.081 31.02 98.971 30.785 98.911 30.565C98.851 30.345 98.831 30.165 98.851 30.025ZM114.428 32.5V28.405C114.428 27.995 114.358 27.655 114.218 27.385C114.078 27.115 113.853 26.91 113.543 26.77C113.243 26.63 112.838 26.56 112.328 26.56C111.838 26.56 111.393 26.655 110.993 26.845C110.593 27.025 110.268 27.265 110.018 27.565C109.768 27.855 109.628 28.165 109.598 28.495L109.583 27.67C109.633 27.34 109.748 27.01 109.928 26.68C110.108 26.35 110.348 26.05 110.648 25.78C110.948 25.51 111.308 25.295 111.728 25.135C112.158 24.965 112.638 24.88 113.168 24.88C113.628 24.88 114.053 24.94 114.443 25.06C114.833 25.17 115.173 25.345 115.463 25.585C115.753 25.825 115.978 26.125 116.138 26.485C116.298 26.835 116.378 27.25 116.378 27.73V32.5H114.428ZM107.753 32.5V22.045H109.703V32.5H107.753ZM131.488 22.795V24.46H124.018V27.07H130.138V28.63H124.018V32.5H122.023V22.795H131.488ZM136.637 32.68C135.697 32.68 134.867 32.53 134.147 32.23C133.437 31.93 132.882 31.495 132.482 30.925C132.082 30.345 131.882 29.635 131.882 28.795C131.882 27.955 132.082 27.245 132.482 26.665C132.882 26.075 133.437 25.63 134.147 25.33C134.867 25.03 135.697 24.88 136.637 24.88C137.577 24.88 138.397 25.03 139.097 25.33C139.807 25.63 140.362 26.075 140.762 26.665C141.162 27.245 141.362 27.955 141.362 28.795C141.362 29.635 141.162 30.345 140.762 30.925C140.362 31.495 139.807 31.93 139.097 32.23C138.397 32.53 137.577 32.68 136.637 32.68ZM136.637 31.18C137.157 31.18 137.622 31.09 138.032 30.91C138.452 30.72 138.782 30.45 139.022 30.1C139.262 29.74 139.382 29.305 139.382 28.795C139.382 28.285 139.262 27.85 139.022 27.49C138.782 27.12 138.457 26.84 138.047 26.65C137.637 26.46 137.167 26.365 136.637 26.365C136.117 26.365 135.647 26.46 135.227 26.65C134.807 26.84 134.472 27.115 134.222 27.475C133.982 27.835 133.862 28.275 133.862 28.795C133.862 29.305 133.982 29.74 134.222 30.1C134.462 30.45 134.792 30.72 135.212 30.91C135.632 31.09 136.107 31.18 136.637 31.18ZM151.428 32.5H149.478V25.045H151.428V32.5ZM149.583 28.915L149.598 29.425C149.578 29.565 149.528 29.77 149.448 30.04C149.368 30.3 149.243 30.58 149.073 30.88C148.913 31.18 148.703 31.47 148.443 31.75C148.183 32.02 147.863 32.245 147.483 32.425C147.103 32.595 146.653 32.68 146.133 32.68C145.723 32.68 145.318 32.63 144.918 32.53C144.528 32.43 144.173 32.265 143.853 32.035C143.533 31.795 143.278 31.475 143.088 31.075C142.898 30.675 142.803 30.17 142.803 29.56V25.045H144.753V29.23C144.753 29.71 144.828 30.09 144.978 30.37C145.138 30.64 145.368 30.83 145.668 30.94C145.968 31.05 146.323 31.105 146.733 31.105C147.273 31.105 147.738 30.99 148.128 30.76C148.518 30.52 148.833 30.23 149.073 29.89C149.323 29.55 149.493 29.225 149.583 28.915ZM153.204 25.045H155.154V32.5H153.204V25.045ZM158.619 24.88C159.079 24.88 159.504 24.94 159.894 25.06C160.284 25.18 160.624 25.365 160.914 25.615C161.204 25.865 161.429 26.185 161.589 26.575C161.749 26.955 161.829 27.41 161.829 27.94V32.5H159.879V28.285C159.879 27.655 159.724 27.195 159.414 26.905C159.114 26.605 158.619 26.455 157.929 26.455C157.409 26.455 156.939 26.555 156.519 26.755C156.099 26.955 155.759 27.21 155.499 27.52C155.239 27.82 155.089 28.135 155.049 28.465L155.034 27.7C155.084 27.35 155.199 27.01 155.379 26.68C155.559 26.35 155.799 26.05 156.099 25.78C156.409 25.5 156.774 25.28 157.194 25.12C157.614 24.96 158.089 24.88 158.619 24.88ZM167.234 32.665C166.484 32.665 165.804 32.505 165.194 32.185C164.594 31.855 164.119 31.4 163.769 30.82C163.419 30.23 163.244 29.55 163.244 28.78C163.244 27.99 163.414 27.305 163.754 26.725C164.104 26.145 164.579 25.695 165.179 25.375C165.779 25.045 166.464 24.88 167.234 24.88C167.904 24.88 168.474 24.98 168.944 25.18C169.414 25.38 169.794 25.66 170.084 26.02C170.374 26.37 170.584 26.78 170.714 27.25C170.854 27.72 170.924 28.23 170.924 28.78C170.924 29.22 170.854 29.67 170.714 30.13C170.574 30.58 170.359 31 170.069 31.39C169.779 31.77 169.399 32.08 168.929 32.32C168.459 32.55 167.894 32.665 167.234 32.665ZM167.864 31.165C168.454 31.165 168.964 31.065 169.394 30.865C169.824 30.665 170.154 30.385 170.384 30.025C170.614 29.665 170.729 29.25 170.729 28.78C170.729 28.27 170.609 27.84 170.369 27.49C170.139 27.13 169.809 26.855 169.379 26.665C168.959 26.475 168.454 26.38 167.864 26.38C167.034 26.38 166.389 26.6 165.929 27.04C165.469 27.48 165.239 28.06 165.239 28.78C165.239 29.26 165.349 29.68 165.569 30.04C165.789 30.39 166.094 30.665 166.484 30.865C166.884 31.065 167.344 31.165 167.864 31.165ZM170.729 22.045H172.679V32.5H170.864C170.834 32.27 170.804 31.975 170.774 31.615C170.744 31.245 170.729 30.9 170.729 30.58V22.045ZM178.411 32.665C177.671 32.665 176.996 32.505 176.386 32.185C175.786 31.855 175.306 31.4 174.946 30.82C174.596 30.23 174.421 29.55 174.421 28.78C174.421 27.99 174.601 27.305 174.961 26.725C175.321 26.145 175.806 25.695 176.416 25.375C177.036 25.045 177.736 24.88 178.516 24.88C179.376 24.88 180.066 25.055 180.586 25.405C181.116 25.745 181.501 26.21 181.741 26.8C181.981 27.39 182.101 28.05 182.101 28.78C182.101 29.22 182.031 29.67 181.891 30.13C181.751 30.58 181.536 31 181.246 31.39C180.956 31.77 180.576 32.08 180.106 32.32C179.636 32.55 179.071 32.665 178.411 32.665ZM179.041 31.165C179.631 31.165 180.141 31.065 180.571 30.865C181.001 30.665 181.331 30.385 181.561 30.025C181.791 29.665 181.906 29.25 181.906 28.78C181.906 28.27 181.786 27.84 181.546 27.49C181.316 27.13 180.986 26.86 180.556 26.68C180.136 26.49 179.631 26.395 179.041 26.395C178.211 26.395 177.566 26.615 177.106 27.055C176.646 27.485 176.416 28.06 176.416 28.78C176.416 29.26 176.526 29.68 176.746 30.04C176.966 30.39 177.271 30.665 177.661 30.865C178.061 31.065 178.521 31.165 179.041 31.165ZM181.906 25.045H183.856V32.5H182.041C182.041 32.5 182.026 32.405 181.996 32.215C181.976 32.015 181.956 31.765 181.936 31.465C181.916 31.165 181.906 30.87 181.906 30.58V25.045ZM185.096 25.045H190.886V26.56H185.096V25.045ZM187.016 23.005H188.966V32.5H187.016V23.005ZM194.36 21.775V23.485H192.095V21.775H194.36ZM192.245 25.045H194.195V32.5H192.245V25.045ZM200.533 32.68C199.593 32.68 198.763 32.53 198.043 32.23C197.333 31.93 196.778 31.495 196.378 30.925C195.978 30.345 195.778 29.635 195.778 28.795C195.778 27.955 195.978 27.245 196.378 26.665C196.778 26.075 197.333 25.63 198.043 25.33C198.763 25.03 199.593 24.88 200.533 24.88C201.473 24.88 202.293 25.03 202.993 25.33C203.703 25.63 204.258 26.075 204.658 26.665C205.058 27.245 205.258 27.955 205.258 28.795C205.258 29.635 205.058 30.345 204.658 30.925C204.258 31.495 203.703 31.93 202.993 32.23C202.293 32.53 201.473 32.68 200.533 32.68ZM200.533 31.18C201.053 31.18 201.518 31.09 201.928 30.91C202.348 30.72 202.678 30.45 202.918 30.1C203.158 29.74 203.278 29.305 203.278 28.795C203.278 28.285 203.158 27.85 202.918 27.49C202.678 27.12 202.353 26.84 201.943 26.65C201.533 26.46 201.063 26.365 200.533 26.365C200.013 26.365 199.543 26.46 199.123 26.65C198.703 26.84 198.368 27.115 198.118 27.475C197.878 27.835 197.758 28.275 197.758 28.795C197.758 29.305 197.878 29.74 198.118 30.1C198.358 30.45 198.688 30.72 199.108 30.91C199.528 31.09 200.003 31.18 200.533 31.18ZM206.7 25.045H208.65V32.5H206.7V25.045ZM212.115 24.88C212.575 24.88 213 24.94 213.39 25.06C213.78 25.18 214.12 25.365 214.41 25.615C214.7 25.865 214.925 26.185 215.085 26.575C215.245 26.955 215.325 27.41 215.325 27.94V32.5H213.375V28.285C213.375 27.655 213.22 27.195 212.91 26.905C212.61 26.605 212.115 26.455 211.425 26.455C210.905 26.455 210.435 26.555 210.015 26.755C209.595 26.955 209.255 27.21 208.995 27.52C208.735 27.82 208.585 28.135 208.545 28.465L208.53 27.7C208.58 27.35 208.695 27.01 208.875 26.68C209.055 26.35 209.295 26.05 209.595 25.78C209.905 25.5 210.27 25.28 210.69 25.12C211.11 24.96 211.585 24.88 212.115 24.88Z" fill="#0E1313"/>
<path d="M77.05 39.814V40.984H79.558V41.5H76.474V37.606H79.552V38.122H77.05V39.31H79.096V39.814H77.05ZM81.5532 41.056H81.3672L82.3392 38.506H82.9632L81.7332 41.5H81.1932L79.9752 38.506H80.6052L81.5532 41.056ZM85.6607 40.528H86.2067C86.1747 40.724 86.0987 40.9 85.9787 41.056C85.8587 41.212 85.7007 41.336 85.5047 41.428C85.3087 41.52 85.0787 41.566 84.8147 41.566C84.5027 41.566 84.2247 41.5 83.9807 41.368C83.7367 41.236 83.5447 41.054 83.4047 40.822C83.2647 40.59 83.1947 40.32 83.1947 40.012C83.1947 39.7 83.2627 39.428 83.3987 39.196C83.5347 38.96 83.7227 38.776 83.9627 38.644C84.2027 38.512 84.4767 38.446 84.7847 38.446C85.1087 38.446 85.3807 38.51 85.6007 38.638C85.8207 38.766 85.9827 38.956 86.0867 39.208C86.1947 39.456 86.2387 39.766 86.2187 40.138H83.7647C83.7847 40.318 83.8387 40.478 83.9267 40.618C84.0187 40.758 84.1387 40.868 84.2867 40.948C84.4387 41.028 84.6127 41.068 84.8087 41.068C85.0287 41.068 85.2127 41.018 85.3607 40.918C85.5087 40.818 85.6087 40.688 85.6607 40.528ZM84.7907 38.938C84.5307 38.938 84.3147 39.008 84.1427 39.148C83.9707 39.284 83.8567 39.466 83.8007 39.694H85.6427C85.6267 39.45 85.5387 39.264 85.3787 39.136C85.2187 39.004 85.0227 38.938 84.7907 38.938ZM86.8253 38.506H87.4013V41.5H86.8253V38.506ZM88.4153 39.016C88.2073 39.016 88.0293 39.064 87.8813 39.16C87.7373 39.256 87.6213 39.374 87.5333 39.514C87.4493 39.654 87.3933 39.788 87.3653 39.916L87.3593 39.574C87.3633 39.534 87.3733 39.472 87.3893 39.388C87.4093 39.3 87.4433 39.202 87.4913 39.094C87.5393 38.986 87.6033 38.884 87.6833 38.788C87.7633 38.688 87.8633 38.606 87.9833 38.542C88.1033 38.478 88.2473 38.446 88.4153 38.446V39.016ZM88.6646 38.506H89.2766L90.4226 41.38L89.9246 41.5L88.6646 38.506ZM91.7186 38.506L89.9246 42.7H89.3186L90.0926 41.074L91.1126 38.506H91.7186ZM95.4604 41.566C95.1524 41.566 94.8744 41.52 94.6264 41.428C94.3824 41.336 94.1724 41.204 93.9964 41.032C93.8204 40.86 93.6864 40.652 93.5944 40.408C93.5024 40.16 93.4564 39.886 93.4564 39.586C93.4564 39.278 93.5064 39 93.6064 38.752C93.7064 38.5 93.8484 38.284 94.0324 38.104C94.2164 37.92 94.4344 37.78 94.6864 37.684C94.9384 37.588 95.2164 37.54 95.5204 37.54C95.8604 37.54 96.1584 37.598 96.4144 37.714C96.6744 37.83 96.8824 37.994 97.0384 38.206C97.1944 38.414 97.2864 38.662 97.3144 38.95H96.7924C96.7404 38.766 96.6564 38.608 96.5404 38.476C96.4244 38.344 96.2804 38.242 96.1084 38.17C95.9364 38.098 95.7404 38.062 95.5204 38.062C95.2204 38.062 94.9604 38.128 94.7404 38.26C94.5204 38.388 94.3484 38.568 94.2244 38.8C94.1004 39.028 94.0384 39.29 94.0384 39.586C94.0384 39.878 94.0924 40.134 94.2004 40.354C94.3124 40.57 94.4744 40.74 94.6864 40.864C94.9024 40.984 95.1624 41.044 95.4664 41.044C95.7024 41.044 95.9084 41.004 96.0844 40.924C96.2644 40.84 96.4104 40.724 96.5224 40.576C96.6384 40.424 96.7184 40.242 96.7624 40.03L97.0624 39.994C97.0024 40.51 96.8304 40.902 96.5464 41.17C96.2624 41.434 95.9004 41.566 95.4604 41.566ZM96.9304 41.5C96.9304 41.372 96.9344 41.226 96.9424 41.062C96.9544 40.894 96.9664 40.726 96.9784 40.558C96.9944 40.386 97.0084 40.232 97.0204 40.096H95.5624V39.628H97.4644V41.5H96.9304ZM100.52 40.528H101.066C101.034 40.724 100.958 40.9 100.838 41.056C100.718 41.212 100.56 41.336 100.364 41.428C100.168 41.52 99.938 41.566 99.674 41.566C99.362 41.566 99.084 41.5 98.84 41.368C98.596 41.236 98.404 41.054 98.264 40.822C98.124 40.59 98.054 40.32 98.054 40.012C98.054 39.7 98.122 39.428 98.258 39.196C98.394 38.96 98.582 38.776 98.822 38.644C99.062 38.512 99.336 38.446 99.644 38.446C99.968 38.446 100.24 38.51 100.46 38.638C100.68 38.766 100.842 38.956 100.946 39.208C101.054 39.456 101.098 39.766 101.078 40.138H98.624C98.644 40.318 98.698 40.478 98.786 40.618C98.878 40.758 98.998 40.868 99.146 40.948C99.298 41.028 99.472 41.068 99.668 41.068C99.888 41.068 100.072 41.018 100.22 40.918C100.368 40.818 100.468 40.688 100.52 40.528ZM99.65 38.938C99.39 38.938 99.174 39.008 99.002 39.148C98.83 39.284 98.716 39.466 98.66 39.694H100.502C100.486 39.45 100.398 39.264 100.238 39.136C100.078 39.004 99.882 38.938 99.65 38.938ZM101.685 38.506H102.261V41.5H101.685V38.506ZM103.401 38.446C103.569 38.446 103.721 38.47 103.857 38.518C103.993 38.566 104.109 38.638 104.205 38.734C104.301 38.826 104.375 38.942 104.427 39.082C104.483 39.218 104.511 39.374 104.511 39.55V41.5H103.941V39.676C103.941 39.44 103.883 39.264 103.767 39.148C103.655 39.028 103.483 38.968 103.251 38.968C103.071 38.968 102.907 39.01 102.759 39.094C102.611 39.178 102.489 39.29 102.393 39.43C102.301 39.566 102.245 39.72 102.225 39.892L102.219 39.562C102.239 39.402 102.281 39.254 102.345 39.118C102.413 38.982 102.497 38.864 102.597 38.764C102.701 38.66 102.821 38.582 102.957 38.53C103.093 38.474 103.241 38.446 103.401 38.446ZM107.575 40.528H108.121C108.089 40.724 108.013 40.9 107.893 41.056C107.773 41.212 107.615 41.336 107.419 41.428C107.223 41.52 106.993 41.566 106.729 41.566C106.417 41.566 106.139 41.5 105.895 41.368C105.651 41.236 105.459 41.054 105.319 40.822C105.179 40.59 105.109 40.32 105.109 40.012C105.109 39.7 105.177 39.428 105.313 39.196C105.449 38.96 105.637 38.776 105.877 38.644C106.117 38.512 106.391 38.446 106.699 38.446C107.023 38.446 107.295 38.51 107.515 38.638C107.735 38.766 107.897 38.956 108.001 39.208C108.109 39.456 108.153 39.766 108.133 40.138H105.679C105.699 40.318 105.753 40.478 105.841 40.618C105.933 40.758 106.053 40.868 106.201 40.948C106.353 41.028 106.527 41.068 106.723 41.068C106.943 41.068 107.127 41.018 107.275 40.918C107.423 40.818 107.523 40.688 107.575 40.528ZM106.705 38.938C106.445 38.938 106.229 39.008 106.057 39.148C105.885 39.284 105.771 39.466 105.715 39.694H107.557C107.541 39.45 107.453 39.264 107.293 39.136C107.133 39.004 106.937 38.938 106.705 38.938ZM108.739 38.506H109.315V41.5H108.739V38.506ZM110.329 39.016C110.121 39.016 109.943 39.064 109.795 39.16C109.651 39.256 109.535 39.374 109.447 39.514C109.363 39.654 109.307 39.788 109.279 39.916L109.273 39.574C109.277 39.534 109.287 39.472 109.303 39.388C109.323 39.3 109.357 39.202 109.405 39.094C109.453 38.986 109.517 38.884 109.597 38.788C109.677 38.688 109.777 38.606 109.897 38.542C110.017 38.478 110.161 38.446 110.329 38.446V39.016ZM112.085 41.56C111.829 41.56 111.595 41.494 111.383 41.362C111.171 41.23 111.003 41.048 110.879 40.816C110.755 40.58 110.693 40.31 110.693 40.006C110.693 39.702 110.755 39.434 110.879 39.202C111.007 38.966 111.181 38.782 111.401 38.65C111.621 38.514 111.867 38.446 112.139 38.446C112.439 38.446 112.671 38.516 112.835 38.656C113.003 38.796 113.119 38.984 113.183 39.22C113.251 39.456 113.285 39.718 113.285 40.006C113.285 40.166 113.265 40.336 113.225 40.516C113.185 40.696 113.121 40.866 113.033 41.026C112.945 41.186 112.823 41.316 112.667 41.416C112.511 41.512 112.317 41.56 112.085 41.56ZM112.247 41.062C112.459 41.062 112.637 41.016 112.781 40.924C112.929 40.828 113.039 40.7 113.111 40.54C113.183 40.38 113.219 40.202 113.219 40.006C113.219 39.794 113.181 39.608 113.105 39.448C113.033 39.288 112.923 39.164 112.775 39.076C112.631 38.988 112.455 38.944 112.247 38.944C111.935 38.944 111.693 39.044 111.521 39.244C111.353 39.444 111.269 39.698 111.269 40.006C111.269 40.214 111.311 40.398 111.395 40.558C111.479 40.714 111.593 40.838 111.737 40.93C111.885 41.018 112.055 41.062 112.247 41.062ZM113.219 38.506H113.795V41.5H113.267C113.267 41.5 113.263 41.464 113.255 41.392C113.247 41.316 113.239 41.226 113.231 41.122C113.223 41.018 113.219 40.926 113.219 40.846V38.506ZM114.336 38.506H116.274V39.004H114.336V38.506ZM115.02 37.714H115.59V41.5H115.02V37.714ZM117.509 37.27V37.888H116.795V37.27H117.509ZM116.867 38.506H117.437V41.5H116.867V38.506ZM119.695 41.566C119.403 41.566 119.135 41.504 118.891 41.38C118.647 41.256 118.453 41.078 118.309 40.846C118.165 40.614 118.093 40.336 118.093 40.012C118.093 39.684 118.165 39.404 118.309 39.172C118.453 38.936 118.647 38.756 118.891 38.632C119.135 38.508 119.403 38.446 119.695 38.446C119.987 38.446 120.253 38.508 120.493 38.632C120.733 38.756 120.925 38.936 121.069 39.172C121.213 39.404 121.285 39.684 121.285 40.012C121.285 40.336 121.213 40.614 121.069 40.846C120.925 41.078 120.733 41.256 120.493 41.38C120.253 41.504 119.987 41.566 119.695 41.566ZM119.695 41.068C119.875 41.068 120.041 41.028 120.193 40.948C120.349 40.864 120.473 40.744 120.565 40.588C120.661 40.428 120.709 40.236 120.709 40.012C120.709 39.784 120.661 39.59 120.565 39.43C120.473 39.27 120.349 39.148 120.193 39.064C120.041 38.98 119.875 38.938 119.695 38.938C119.515 38.938 119.347 38.98 119.191 39.064C119.035 39.144 118.909 39.264 118.813 39.424C118.717 39.584 118.669 39.78 118.669 40.012C118.669 40.236 118.715 40.428 118.807 40.588C118.903 40.744 119.029 40.864 119.185 40.948C119.341 41.028 119.511 41.068 119.695 41.068ZM121.888 38.506H122.464V41.5H121.888V38.506ZM123.604 38.446C123.772 38.446 123.924 38.47 124.06 38.518C124.196 38.566 124.312 38.638 124.408 38.734C124.504 38.826 124.578 38.942 124.63 39.082C124.686 39.218 124.714 39.374 124.714 39.55V41.5H124.144V39.676C124.144 39.44 124.086 39.264 123.97 39.148C123.858 39.028 123.686 38.968 123.454 38.968C123.274 38.968 123.11 39.01 122.962 39.094C122.814 39.178 122.692 39.29 122.596 39.43C122.504 39.566 122.448 39.72 122.428 39.892L122.422 39.562C122.442 39.402 122.484 39.254 122.548 39.118C122.616 38.982 122.7 38.864 122.8 38.764C122.904 38.66 123.024 38.582 123.16 38.53C123.296 38.474 123.444 38.446 123.604 38.446ZM128.442 37.606C128.846 37.606 129.184 37.658 129.456 37.762C129.732 37.862 129.952 38.002 130.116 38.182C130.284 38.362 130.404 38.568 130.476 38.8C130.548 39.032 130.584 39.278 130.584 39.538C130.584 39.794 130.544 40.04 130.464 40.276C130.388 40.512 130.264 40.722 130.092 40.906C129.924 41.09 129.704 41.236 129.432 41.344C129.16 41.448 128.83 41.5 128.442 41.5H126.882V37.606H128.442ZM127.458 40.978H128.436C128.744 40.978 128.998 40.938 129.198 40.858C129.398 40.774 129.556 40.664 129.672 40.528C129.792 40.388 129.876 40.232 129.924 40.06C129.976 39.888 130.002 39.714 130.002 39.538C130.002 39.358 129.976 39.184 129.924 39.016C129.876 38.848 129.792 38.698 129.672 38.566C129.556 38.43 129.398 38.324 129.198 38.248C128.998 38.168 128.744 38.128 128.436 38.128H127.458V40.978ZM133.579 40.528H134.125C134.093 40.724 134.017 40.9 133.897 41.056C133.777 41.212 133.619 41.336 133.423 41.428C133.227 41.52 132.997 41.566 132.733 41.566C132.421 41.566 132.143 41.5 131.899 41.368C131.655 41.236 131.463 41.054 131.323 40.822C131.183 40.59 131.113 40.32 131.113 40.012C131.113 39.7 131.181 39.428 131.317 39.196C131.453 38.96 131.641 38.776 131.881 38.644C132.121 38.512 132.395 38.446 132.703 38.446C133.027 38.446 133.299 38.51 133.519 38.638C133.739 38.766 133.901 38.956 134.005 39.208C134.113 39.456 134.157 39.766 134.137 40.138H131.683C131.703 40.318 131.757 40.478 131.845 40.618C131.937 40.758 132.057 40.868 132.205 40.948C132.357 41.028 132.531 41.068 132.727 41.068C132.947 41.068 133.131 41.018 133.279 40.918C133.427 40.818 133.527 40.688 133.579 40.528ZM132.709 38.938C132.449 38.938 132.233 39.008 132.061 39.148C131.889 39.284 131.775 39.466 131.719 39.694H133.561C133.545 39.45 133.457 39.264 133.297 39.136C133.137 39.004 132.941 38.938 132.709 38.938ZM134.611 40.528H135.139C135.159 40.688 135.231 40.82 135.355 40.924C135.479 41.024 135.653 41.074 135.877 41.074C136.021 41.074 136.133 41.058 136.213 41.026C136.293 40.99 136.349 40.942 136.381 40.882C136.417 40.822 136.435 40.756 136.435 40.684C136.435 40.592 136.411 40.522 136.363 40.474C136.315 40.422 136.247 40.38 136.159 40.348C136.071 40.312 135.967 40.278 135.847 40.246C135.715 40.21 135.583 40.168 135.451 40.12C135.319 40.072 135.197 40.014 135.085 39.946C134.977 39.878 134.889 39.794 134.821 39.694C134.757 39.59 134.725 39.464 134.725 39.316C134.725 39.192 134.751 39.076 134.803 38.968C134.859 38.86 134.937 38.768 135.037 38.692C135.141 38.612 135.261 38.552 135.397 38.512C135.533 38.468 135.683 38.446 135.847 38.446C136.075 38.446 136.267 38.488 136.423 38.572C136.579 38.652 136.697 38.766 136.777 38.914C136.861 39.062 136.905 39.232 136.909 39.424H136.405C136.377 39.256 136.319 39.134 136.231 39.058C136.143 38.978 136.011 38.938 135.835 38.938C135.663 38.938 135.531 38.972 135.439 39.04C135.347 39.108 135.301 39.2 135.301 39.316C135.301 39.404 135.333 39.476 135.397 39.532C135.461 39.584 135.547 39.63 135.655 39.67C135.763 39.71 135.885 39.752 136.021 39.796C136.149 39.84 136.271 39.886 136.387 39.934C136.507 39.978 136.613 40.032 136.705 40.096C136.801 40.156 136.875 40.236 136.927 40.336C136.983 40.432 137.011 40.552 137.011 40.696C137.011 40.872 136.967 41.026 136.879 41.158C136.791 41.286 136.663 41.386 136.495 41.458C136.331 41.53 136.131 41.566 135.895 41.566C135.679 41.566 135.495 41.54 135.343 41.488C135.195 41.436 135.069 41.368 134.965 41.284C134.865 41.2 134.787 41.112 134.731 41.02C134.679 40.924 134.643 40.832 134.623 40.744C134.607 40.656 134.603 40.584 134.611 40.528ZM139.924 40.528H140.47C140.438 40.724 140.362 40.9 140.242 41.056C140.122 41.212 139.964 41.336 139.768 41.428C139.572 41.52 139.342 41.566 139.078 41.566C138.766 41.566 138.488 41.5 138.244 41.368C138 41.236 137.808 41.054 137.668 40.822C137.528 40.59 137.458 40.32 137.458 40.012C137.458 39.7 137.526 39.428 137.662 39.196C137.798 38.96 137.986 38.776 138.226 38.644C138.466 38.512 138.74 38.446 139.048 38.446C139.372 38.446 139.644 38.51 139.864 38.638C140.084 38.766 140.246 38.956 140.35 39.208C140.458 39.456 140.502 39.766 140.482 40.138H138.028C138.048 40.318 138.102 40.478 138.19 40.618C138.282 40.758 138.402 40.868 138.55 40.948C138.702 41.028 138.876 41.068 139.072 41.068C139.292 41.068 139.476 41.018 139.624 40.918C139.772 40.818 139.872 40.688 139.924 40.528ZM139.054 38.938C138.794 38.938 138.578 39.008 138.406 39.148C138.234 39.284 138.12 39.466 138.064 39.694H139.906C139.89 39.45 139.802 39.264 139.642 39.136C139.482 39.004 139.286 38.938 139.054 38.938ZM141.089 38.506H141.665V41.5H141.089V38.506ZM142.679 39.016C142.471 39.016 142.293 39.064 142.145 39.16C142.001 39.256 141.885 39.374 141.797 39.514C141.713 39.654 141.657 39.788 141.629 39.916L141.623 39.574C141.627 39.534 141.637 39.472 141.653 39.388C141.673 39.3 141.707 39.202 141.755 39.094C141.803 38.986 141.867 38.884 141.947 38.788C142.027 38.688 142.127 38.606 142.247 38.542C142.367 38.478 142.511 38.446 142.679 38.446V39.016ZM144.506 41.056H144.32L145.292 38.506H145.916L144.686 41.5H144.146L142.928 38.506H143.558L144.506 41.056ZM148.614 40.528H149.16C149.128 40.724 149.052 40.9 148.932 41.056C148.812 41.212 148.654 41.336 148.458 41.428C148.262 41.52 148.032 41.566 147.768 41.566C147.456 41.566 147.178 41.5 146.934 41.368C146.69 41.236 146.498 41.054 146.358 40.822C146.218 40.59 146.148 40.32 146.148 40.012C146.148 39.7 146.216 39.428 146.352 39.196C146.488 38.96 146.676 38.776 146.916 38.644C147.156 38.512 147.43 38.446 147.738 38.446C148.062 38.446 148.334 38.51 148.554 38.638C148.774 38.766 148.936 38.956 149.04 39.208C149.148 39.456 149.192 39.766 149.172 40.138H146.718C146.738 40.318 146.792 40.478 146.88 40.618C146.972 40.758 147.092 40.868 147.24 40.948C147.392 41.028 147.566 41.068 147.762 41.068C147.982 41.068 148.166 41.018 148.314 40.918C148.462 40.818 148.562 40.688 148.614 40.528ZM147.744 38.938C147.484 38.938 147.268 39.008 147.096 39.148C146.924 39.284 146.81 39.466 146.754 39.694H148.596C148.58 39.45 148.492 39.264 148.332 39.136C148.172 39.004 147.976 38.938 147.744 38.938ZM149.646 40.528H150.174C150.194 40.688 150.266 40.82 150.39 40.924C150.514 41.024 150.688 41.074 150.912 41.074C151.056 41.074 151.168 41.058 151.248 41.026C151.328 40.99 151.384 40.942 151.416 40.882C151.452 40.822 151.47 40.756 151.47 40.684C151.47 40.592 151.446 40.522 151.398 40.474C151.35 40.422 151.282 40.38 151.194 40.348C151.106 40.312 151.002 40.278 150.882 40.246C150.75 40.21 150.618 40.168 150.486 40.12C150.354 40.072 150.232 40.014 150.12 39.946C150.012 39.878 149.924 39.794 149.856 39.694C149.792 39.59 149.76 39.464 149.76 39.316C149.76 39.192 149.786 39.076 149.838 38.968C149.894 38.86 149.972 38.768 150.072 38.692C150.176 38.612 150.296 38.552 150.432 38.512C150.568 38.468 150.718 38.446 150.882 38.446C151.11 38.446 151.302 38.488 151.458 38.572C151.614 38.652 151.732 38.766 151.812 38.914C151.896 39.062 151.94 39.232 151.944 39.424H151.44C151.412 39.256 151.354 39.134 151.266 39.058C151.178 38.978 151.046 38.938 150.87 38.938C150.698 38.938 150.566 38.972 150.474 39.04C150.382 39.108 150.336 39.2 150.336 39.316C150.336 39.404 150.368 39.476 150.432 39.532C150.496 39.584 150.582 39.63 150.69 39.67C150.798 39.71 150.92 39.752 151.056 39.796C151.184 39.84 151.306 39.886 151.422 39.934C151.542 39.978 151.648 40.032 151.74 40.096C151.836 40.156 151.91 40.236 151.962 40.336C152.018 40.432 152.046 40.552 152.046 40.696C152.046 40.872 152.002 41.026 151.914 41.158C151.826 41.286 151.698 41.386 151.53 41.458C151.366 41.53 151.166 41.566 150.93 41.566C150.714 41.566 150.53 41.54 150.378 41.488C150.23 41.436 150.104 41.368 150 41.284C149.9 41.2 149.822 41.112 149.766 41.02C149.714 40.924 149.678 40.832 149.658 40.744C149.642 40.656 149.638 40.584 149.646 40.528ZM157.778 40.168C157.742 40.46 157.642 40.71 157.478 40.918C157.318 41.126 157.108 41.286 156.848 41.398C156.588 41.51 156.292 41.566 155.96 41.566C155.66 41.566 155.384 41.52 155.132 41.428C154.884 41.336 154.668 41.204 154.484 41.032C154.3 40.86 154.156 40.65 154.052 40.402C153.948 40.15 153.896 39.868 153.896 39.556C153.896 39.24 153.948 38.958 154.052 38.71C154.156 38.462 154.3 38.252 154.484 38.08C154.668 37.904 154.884 37.77 155.132 37.678C155.384 37.586 155.66 37.54 155.96 37.54C156.296 37.54 156.594 37.598 156.854 37.714C157.114 37.826 157.324 37.988 157.484 38.2C157.648 38.408 157.748 38.658 157.784 38.95H157.232C157.18 38.762 157.094 38.602 156.974 38.47C156.854 38.338 156.708 38.238 156.536 38.17C156.364 38.098 156.172 38.062 155.96 38.062C155.688 38.062 155.44 38.12 155.216 38.236C154.992 38.352 154.812 38.52 154.676 38.74C154.544 38.96 154.478 39.232 154.478 39.556C154.478 39.876 154.544 40.148 154.676 40.372C154.812 40.592 154.992 40.76 155.216 40.876C155.44 40.988 155.688 41.044 155.96 41.044C156.172 41.044 156.362 41.01 156.53 40.942C156.702 40.874 156.848 40.774 156.968 40.642C157.088 40.51 157.176 40.352 157.232 40.168H157.778ZM159.704 41.56C159.448 41.56 159.214 41.494 159.002 41.362C158.79 41.23 158.622 41.048 158.498 40.816C158.374 40.58 158.312 40.31 158.312 40.006C158.312 39.702 158.374 39.434 158.498 39.202C158.626 38.966 158.8 38.782 159.02 38.65C159.24 38.514 159.486 38.446 159.758 38.446C160.058 38.446 160.29 38.516 160.454 38.656C160.622 38.796 160.738 38.984 160.802 39.22C160.87 39.456 160.904 39.718 160.904 40.006C160.904 40.166 160.884 40.336 160.844 40.516C160.804 40.696 160.74 40.866 160.652 41.026C160.564 41.186 160.442 41.316 160.286 41.416C160.13 41.512 159.936 41.56 159.704 41.56ZM159.866 41.062C160.078 41.062 160.256 41.016 160.4 40.924C160.548 40.828 160.658 40.7 160.73 40.54C160.802 40.38 160.838 40.202 160.838 40.006C160.838 39.794 160.8 39.608 160.724 39.448C160.652 39.288 160.542 39.164 160.394 39.076C160.25 38.988 160.074 38.944 159.866 38.944C159.554 38.944 159.312 39.044 159.14 39.244C158.972 39.444 158.888 39.698 158.888 40.006C158.888 40.214 158.93 40.398 159.014 40.558C159.098 40.714 159.212 40.838 159.356 40.93C159.504 41.018 159.674 41.062 159.866 41.062ZM160.838 38.506H161.414V41.5H160.886C160.886 41.5 160.882 41.464 160.874 41.392C160.866 41.316 160.858 41.226 160.85 41.122C160.842 41.018 160.838 40.926 160.838 40.846V38.506ZM162.165 38.506H162.741V41.5H162.165V38.506ZM163.755 39.016C163.547 39.016 163.369 39.064 163.221 39.16C163.077 39.256 162.961 39.374 162.873 39.514C162.789 39.654 162.733 39.788 162.705 39.916L162.699 39.574C162.703 39.534 162.713 39.472 162.729 39.388C162.749 39.3 162.783 39.202 162.831 39.094C162.879 38.986 162.943 38.884 163.023 38.788C163.103 38.688 163.203 38.606 163.323 38.542C163.443 38.478 163.587 38.446 163.755 38.446V39.016ZM166.585 40.528H167.131C167.099 40.724 167.023 40.9 166.903 41.056C166.783 41.212 166.625 41.336 166.429 41.428C166.233 41.52 166.003 41.566 165.738 41.566C165.426 41.566 165.148 41.5 164.904 41.368C164.66 41.236 164.468 41.054 164.328 40.822C164.188 40.59 164.118 40.32 164.118 40.012C164.118 39.7 164.186 39.428 164.322 39.196C164.458 38.96 164.646 38.776 164.886 38.644C165.126 38.512 165.4 38.446 165.709 38.446C166.033 38.446 166.305 38.51 166.525 38.638C166.745 38.766 166.907 38.956 167.011 39.208C167.119 39.456 167.163 39.766 167.143 40.138H164.688C164.708 40.318 164.762 40.478 164.85 40.618C164.942 40.758 165.062 40.868 165.21 40.948C165.362 41.028 165.536 41.068 165.733 41.068C165.953 41.068 166.137 41.018 166.285 40.918C166.433 40.818 166.533 40.688 166.585 40.528ZM165.714 38.938C165.454 38.938 165.238 39.008 165.066 39.148C164.894 39.284 164.78 39.466 164.724 39.694H166.567C166.551 39.45 166.463 39.264 166.303 39.136C166.143 39.004 165.947 38.938 165.714 38.938Z" fill="#0E1313" fill-opacity="0.6"/>
<defs>
<linearGradient id="paint0_linear_120_715" x1="6.08172" y1="34.7458" x2="24.6687" y2="52.09" gradientUnits="userSpaceOnUse">
<stop stop-color="#79D1ED"/>
<stop offset="1" stop-color="#104849"/>
</linearGradient>
<linearGradient id="paint1_linear_120_715" x1="53.8597" y1="34.7458" x2="35.2728" y2="52.09" gradientUnits="userSpaceOnUse">
<stop stop-color="#79D1ED"/>
<stop offset="1" stop-color="#104849"/>
</linearGradient>
</defs>
</svg>
